<svg xmlns="http://www.w3.org/2000/svg" xmlns:xlink="http://www.w3.org/1999/xlink" width="1123" zoomAndPan="magnify" viewBox="0 0 240.75 141.75" height="794" preserveAspectRatio="xMidYMid meet" version="1.0"><metadata/><defs><clipPath id="61ad2b901d"><path d="M 0.0859375 0 L 240.414062 0 L 240.414062 141.5 L 0.0859375 141.5 Z M 0.0859375 0 " clip-rule="nonzero"/></clipPath><clipPath id="2d5134c7a5"><path d="M 22.769531 22.761719 L 240.414062 22.761719 L 240.414062 141.5 L 22.769531 141.5 Z M 22.769531 22.761719 " clip-rule="nonzero"/></clipPath><clipPath id="632dfb417d"><path d="M 0.769531 0.761719 L 218.414062 0.761719 L 218.414062 119.5 L 0.769531 119.5 Z M 0.769531 0.761719 " clip-rule="nonzero"/></clipPath><clipPath id="8f5c838954"><rect x="0" width="219" y="0" height="120"/></clipPath><clipPath id="ec0bde603a"><path d="M 106 54 L 240.414062 54 L 240.414062 141.5 L 106 141.5 Z M 106 54 " clip-rule="nonzero"/></clipPath><clipPath id="9374f00060"><path d="M 110.191406 318.660156 L 106.558594 309.941406 L 719.460938 54.71875 L 723.09375 63.433594 Z M 110.191406 318.660156 " clip-rule="nonzero"/></clipPath><clipPath id="cdc20cb161"><path d="M 0.460938 0.625 L 134.414062 0.625 L 134.414062 87.5 L 0.460938 87.5 Z M 0.460938 0.625 " clip-rule="nonzero"/></clipPath><clipPath id="5b187d71d4"><path d="M 4.191406 264.660156 L 0.558594 255.941406 L 613.460938 0.71875 L 617.09375 9.433594 Z M 4.191406 264.660156 " clip-rule="nonzero"/></clipPath><clipPath id="9210346ba4"><rect x="0" width="135" y="0" height="88"/></clipPath><clipPath id="3bd1fc5bc5"><path d="M 105 56 L 240.414062 56 L 240.414062 141.5 L 105 141.5 Z M 105 56 " clip-rule="nonzero"/></clipPath><clipPath id="ee08eb621a"><path d="M 108.046875 315.582031 L 105.105469 308.417969 L 719.457031 56.449219 L 722.394531 63.613281 Z M 108.046875 315.582031 " clip-rule="nonzero"/></clipPath><clipPath id="e57d417167"><path d="M 0.0234375 0.300781 L 135.414062 0.300781 L 135.414062 85.5 L 0.0234375 85.5 Z M 0.0234375 0.300781 " clip-rule="nonzero"/></clipPath><clipPath id="675369080c"><path d="M 3.046875 259.582031 L 0.105469 252.417969 L 614.457031 0.449219 L 617.394531 7.613281 Z M 3.046875 259.582031 " clip-rule="nonzero"/></clipPath><clipPath id="94b0b20228"><rect x="0" width="136" y="0" height="86"/></clipPath><clipPath id="8be5ae2240"><path d="M 82 59 L 240.414062 59 L 240.414062 141.5 L 82 141.5 Z M 82 59 " clip-rule="nonzero"/></clipPath><clipPath id="2e439136d3"><path d="M 0.0859375 0 L 240.414062 0 L 240.414062 141.5 L 0.0859375 141.5 Z M 0.0859375 0 " clip-rule="nonzero"/></clipPath><clipPath id="4f72e35acb"><path d="M -258.898438 46.414062 L 64.328125 -276.8125 L 320.894531 -20.246094 L -2.332031 302.980469 Z M -258.898438 46.414062 " clip-rule="nonzero"/></clipPath><clipPath id="196da00f97"><path d="M -93.6875 211.625 C -93.6875 211.625 -56.601562 244.640625 -15.503906 219.058594 C 25.59375 193.476562 11.09375 176.945312 49.992188 165.4375 C 88.890625 153.929688 103.492188 180.511719 144.804688 151.074219 C 186.117188 121.640625 188.128906 87.257812 255.902344 39.980469 C 323.675781 -7.296875 290.257812 -50.882812 290.257812 -50.882812 L 64.328125 -276.8125 C 64.328125 -276.8125 94.296875 -236.675781 77.558594 -200.972656 C 60.820312 -165.273438 22.929688 -144.621094 11.222656 -115.867188 C -0.484375 -87.113281 30.976562 -63.789062 -8.265625 -14.203125 C -8.265625 -14.203125 -17.929688 2.355469 -37.539062 15.070312 C -57.148438 27.78125 -75.726562 45.59375 -99.632812 80.230469 C -123.75 114.882812 -156.960938 113.996094 -190.421875 114.890625 " clip-rule="nonzero"/></clipPath><clipPath id="c1021aa893"><path d="M 0.0859375 0 L 240.414062 0 L 240.414062 141.5 L 0.0859375 141.5 Z M 0.0859375 0 " clip-rule="nonzero"/></clipPath><clipPath id="d7991ca3df"><path d="M -258.898438 46.414062 L 64.328125 -276.8125 L 320.894531 -20.246094 L -2.332031 302.980469 Z M -258.898438 46.414062 " clip-rule="nonzero"/></clipPath><clipPath id="ce987d99a5"><path d="M -93.6875 211.625 C -93.6875 211.625 -56.601562 244.640625 -15.503906 219.058594 C 25.59375 193.476562 11.09375 176.945312 49.992188 165.4375 C 88.890625 153.929688 103.492188 180.511719 144.804688 151.074219 C 186.117188 121.640625 188.128906 87.257812 255.902344 39.980469 C 323.675781 -7.296875 290.257812 -50.882812 290.257812 -50.882812 L 64.328125 -276.8125 C 64.328125 -276.8125 94.296875 -236.675781 77.558594 -200.972656 C 60.820312 -165.273438 22.929688 -144.621094 11.222656 -115.867188 C -0.484375 -87.113281 30.976562 -63.789062 -8.265625 -14.203125 C -8.265625 -14.203125 -17.929688 2.355469 -37.539062 15.070312 C -57.148438 27.78125 -75.726562 45.59375 -99.632812 80.230469 C -123.75 114.882812 -156.960938 113.996094 -190.421875 114.890625 " clip-rule="nonzero"/></clipPath><clipPath id="b00c7e1819"><rect x="0" width="241" y="0" height="142"/></clipPath></defs><g clip-path="url(#61ad2b901d)"><path fill="#ffffff" d="M 0.0859375 0 L 840.855469 0 L 840.855469 594.453125 L 0.0859375 594.453125 Z M 0.0859375 0 " fill-opacity="1" fill-rule="nonzero"/><path fill="#000000" d="M 0.0859375 0 L 840.855469 0 L 840.855469 594.453125 L 0.0859375 594.453125 Z M 0.0859375 0 " fill-opacity="1" fill-rule="nonzero"/></g><g clip-path="url(#2d5134c7a5)"><g transform="matrix(1, 0, 0, 1, 22, 22)"><g clip-path="url(#8f5c838954)"><g clip-path="url(#632dfb417d)"><path fill="#f7f8fd" d="M 0.769531 0.761719 L 795.960938 0.761719 L 795.960938 549.464844 L 0.769531 549.464844 Z M 0.769531 0.761719 " fill-opacity="1" fill-rule="nonzero"/></g></g></g></g><g clip-path="url(#ec0bde603a)"><g clip-path="url(#9374f00060)"><g transform="matrix(1, 0, 0, 1, 106, 54)"><g clip-path="url(#9210346ba4)"><g clip-path="url(#cdc20cb161)"><g clip-path="url(#5b187d71d4)"><path fill="#000000" d="M 4.191406 264.660156 L 0.558594 255.941406 L 613.476562 0.710938 L 617.105469 9.429688 Z M 4.191406 264.660156 " fill-opacity="1" fill-rule="nonzero"/></g></g></g></g></g></g><g clip-path="url(#3bd1fc5bc5)"><g clip-path="url(#ee08eb621a)"><g transform="matrix(1, 0, 0, 1, 105, 56)"><g clip-path="url(#94b0b20228)"><g clip-path="url(#e57d417167)"><g clip-path="url(#675369080c)"><path fill="#000000" d="M 3.046875 259.582031 L 0.105469 252.417969 L 614.449219 0.453125 L 617.386719 7.617188 Z M 3.046875 259.582031 " fill-opacity="1" fill-rule="nonzero"/></g></g></g></g></g></g><g clip-path="url(#8be5ae2240)"><path stroke-linecap="butt" transform="matrix(-0.69944, 0.26703, -0.26703, -0.69944, 688.974989, 96.574865)" fill="none" stroke-linejoin="miter" d="M 0.000888404 3.999998 L 816.826565 3.999229 " stroke="#000000" stroke-width="8" stroke-opacity="1" stroke-miterlimit="4"/></g><g clip-path="url(#2e439136d3)"><g clip-path="url(#4f72e35acb)"><g clip-path="url(#196da00f97)"><g transform="matrix(1, 0, 0, 1, 0.000000000000000014, 0)"><g clip-path="url(#b00c7e1819)"><g clip-path="url(#c1021aa893)"><g clip-path="url(#d7991ca3df)"><g clip-path="url(#ce987d99a5)"><path fill="#000000" d="M -258.898438 46.414062 L 64.328125 -276.8125 L 328.648438 -12.496094 L 5.417969 310.730469 Z M -258.898438 46.414062 " fill-opacity="1" fill-rule="nonzero"/></g></g></g></g></g></g></g></g></svg>