<svg xmlns="http://www.w3.org/2000/svg" xmlns:xlink="http://www.w3.org/1999/xlink" width="1123" zoomAndPan="magnify" viewBox="0 0 240.75 141.75" height="794" preserveAspectRatio="xMidYMid meet" version="1.0"><metadata/><defs><clipPath id="7f007df1c4"><path d="M 0.0859375 0 L 240.414062 0 L 240.414062 141.5 L 0.0859375 141.5 Z M 0.0859375 0 " clip-rule="nonzero"/></clipPath><clipPath id="9679f32ba4"><path d="M 22.769531 22.761719 L 240.414062 22.761719 L 240.414062 141.5 L 22.769531 141.5 Z M 22.769531 22.761719 " clip-rule="nonzero"/></clipPath><clipPath id="93dcdc5555"><path d="M 0.769531 0.761719 L 218.414062 0.761719 L 218.414062 119.5 L 0.769531 119.5 Z M 0.769531 0.761719 " clip-rule="nonzero"/></clipPath><clipPath id="3677cbe353"><rect x="0" width="219" y="0" height="120"/></clipPath><clipPath id="65286bcd99"><path d="M 0.0859375 0 L 240.414062 0 L 240.414062 116 L 0.0859375 116 Z M 0.0859375 0 " clip-rule="nonzero"/></clipPath><clipPath id="daf406bf08"><path d="M 147.046875 -171.527344 L 301.804688 -47.886719 L 112.195312 189.441406 L -42.5625 65.800781 Z M 147.046875 -171.527344 " clip-rule="nonzero"/></clipPath><clipPath id="acfdd5a50a"><path d="M 111.601562 82.550781 C 100.941406 80.714844 90.738281 77.710938 79.113281 77.675781 C 78.84375 77.714844 78.824219 77.445312 78.554688 77.484375 C 77.738281 77.609375 76.785156 77.613281 75.96875 77.738281 C 75.699219 77.777344 75.683594 77.507812 75.410156 77.546875 C 70.667969 78.128906 66.191406 78.667969 61.839844 80.84375 C 61.570312 80.882812 61.300781 80.925781 61.027344 80.96875 C 58.253906 82.351562 55.480469 83.738281 53.042969 85.898438 C 52.917969 86.054688 52.375 86.140625 52.25 86.296875 C 50.582031 87.792969 48.910156 89.285156 47.242188 90.78125 C 46.09375 91.917969 45.085938 93.179688 43.945312 94.320312 C 38.242188 100.5625 34.554688 108.15625 27.835938 113.585938 C 27.046875 113.984375 26.253906 114.375 25.460938 114.773438 C 24.671875 115.171875 23.714844 115.175781 22.902344 115.300781 C 21.941406 115.308594 20.96875 115.042969 19.988281 114.773438 C 19.015625 114.507812 18.144531 113.8125 17.289062 113.390625 C 15.570312 112.273438 14.382812 111.070312 13.039062 109.484375 C 9.875 105.414062 7.121094 101.414062 5.515625 96.273438 C 5.351562 95.886719 5.058594 95.652344 4.894531 95.265625 C -1.652344 78.460938 -2.648438 60.953125 -0.335938 41.984375 C -0.234375 41.554688 -0.105469 41.390625 0.00390625 40.964844 C 2.582031 21.671875 9.53125 4.34375 20.136719 -11.609375 C 26.535156 -21.40625 33.453125 -29.765625 42.59375 -37.632812 C 43.882812 -38.65625 45.054688 -39.523438 46.199219 -40.664062 C 56.921875 -49.320312 67.550781 -55.484375 80.613281 -60.21875 C 82.089844 -60.582031 83.421875 -61.058594 84.882812 -61.691406 C 94.648438 -64.6875 103.554688 -66.3125 113.496094 -66.851562 C 118.410156 -67.042969 122.648438 -66.996094 127.449219 -66.757812 C 130.070312 -66.464844 132.398438 -66.398438 135.019531 -66.113281 C 136.953125 -65.855469 138.621094 -65.554688 140.402344 -65.40625 C 153.9375 -63.59375 165.714844 -59.582031 179.8125 -59.375 C 180.085938 -59.414062 180.101562 -59.144531 180.371094 -59.183594 C 181.1875 -59.308594 182.140625 -59.3125 182.957031 -59.4375 C 183.226562 -59.476562 183.242188 -59.207031 183.515625 -59.246094 C 188.257812 -59.828125 192.734375 -60.367188 197.085938 -62.542969 C 197.355469 -62.582031 197.625 -62.625 197.898438 -62.667969 C 200.671875 -64.050781 203.445312 -65.4375 205.882812 -67.597656 C 206.007812 -67.753906 206.550781 -67.839844 206.675781 -67.996094 C 208.34375 -69.492188 210.015625 -70.984375 211.683594 -72.484375 C 212.832031 -73.621094 213.839844 -74.878906 214.980469 -76.019531 C 220.683594 -82.261719 224.371094 -89.855469 231.089844 -95.285156 C 231.878906 -95.683594 232.671875 -96.074219 233.464844 -96.472656 C 234.253906 -96.871094 235.210938 -96.875 236.023438 -97 C 236.984375 -97.007812 237.957031 -96.742188 238.9375 -96.472656 C 239.910156 -96.207031 240.78125 -95.511719 241.636719 -95.089844 C 243.355469 -93.972656 244.542969 -92.769531 245.886719 -91.183594 C 249.050781 -87.113281 251.804688 -83.117188 253.410156 -77.972656 C 253.574219 -77.585938 253.867188 -77.351562 254.03125 -76.964844 C 260.578125 -60.160156 261.574219 -42.652344 259.261719 -23.683594 C 259.160156 -23.253906 259.03125 -23.09375 258.921875 -22.667969 C 256.355469 -3.378906 249.402344 13.949219 238.804688 29.90625 C 232.402344 39.703125 225.484375 48.058594 216.347656 55.925781 C 215.054688 56.949219 213.882812 57.820312 212.738281 58.957031 C 202.015625 67.617188 191.386719 73.78125 178.324219 78.515625 C 176.847656 78.878906 175.515625 79.355469 174.054688 79.988281 C 153.589844 86.261719 133.914062 86.476562 114.234375 82.839844 C 113.394531 82.695312 112.4375 82.699219 111.601562 82.550781 Z M 111.601562 82.550781 " clip-rule="nonzero"/></clipPath><clipPath id="45d6dfc1a4"><path d="M 0.0859375 0 L 240.414062 0 L 240.414062 115.476562 L 0.0859375 115.476562 Z M 0.0859375 0 " clip-rule="nonzero"/></clipPath><clipPath id="7bdd85d0b4"><path d="M 147.046875 -171.527344 L 301.804688 -47.886719 L 112.195312 189.441406 L -42.5625 65.800781 Z M 147.046875 -171.527344 " clip-rule="nonzero"/></clipPath><clipPath id="5a8f5fcd4c"><path d="M 111.601562 82.550781 C 100.941406 80.714844 90.738281 77.710938 79.113281 77.675781 C 78.84375 77.714844 78.824219 77.445312 78.554688 77.484375 C 77.738281 77.609375 76.785156 77.613281 75.96875 77.738281 C 75.699219 77.777344 75.683594 77.507812 75.410156 77.546875 C 70.667969 78.128906 66.191406 78.667969 61.839844 80.84375 C 61.570312 80.882812 61.300781 80.925781 61.027344 80.96875 C 58.253906 82.351562 55.480469 83.738281 53.042969 85.898438 C 52.917969 86.054688 52.375 86.140625 52.25 86.296875 C 50.582031 87.792969 48.910156 89.285156 47.242188 90.78125 C 46.09375 91.917969 45.085938 93.179688 43.945312 94.320312 C 38.242188 100.5625 34.554688 108.15625 27.835938 113.585938 C 27.046875 113.984375 26.253906 114.375 25.460938 114.773438 C 24.671875 115.171875 23.714844 115.175781 22.902344 115.300781 C 21.941406 115.308594 20.96875 115.042969 19.988281 114.773438 C 19.015625 114.507812 18.144531 113.8125 17.289062 113.390625 C 15.570312 112.273438 14.382812 111.070312 13.039062 109.484375 C 9.875 105.414062 7.121094 101.414062 5.515625 96.273438 C 5.351562 95.886719 5.058594 95.652344 4.894531 95.265625 C -1.652344 78.460938 -2.648438 60.953125 -0.335938 41.984375 C -0.234375 41.554688 -0.105469 41.390625 0.00390625 40.964844 C 2.582031 21.671875 9.53125 4.34375 20.136719 -11.609375 C 26.535156 -21.40625 33.453125 -29.765625 42.59375 -37.632812 C 43.882812 -38.65625 45.054688 -39.523438 46.199219 -40.664062 C 56.921875 -49.320312 67.550781 -55.484375 80.613281 -60.21875 C 82.089844 -60.582031 83.421875 -61.058594 84.882812 -61.691406 C 94.648438 -64.6875 103.554688 -66.3125 113.496094 -66.851562 C 118.410156 -67.042969 122.648438 -66.996094 127.449219 -66.757812 C 130.070312 -66.464844 132.398438 -66.398438 135.019531 -66.113281 C 136.953125 -65.855469 138.621094 -65.554688 140.402344 -65.40625 C 153.9375 -63.59375 165.714844 -59.582031 179.8125 -59.375 C 180.085938 -59.414062 180.101562 -59.144531 180.371094 -59.183594 C 181.1875 -59.308594 182.140625 -59.3125 182.957031 -59.4375 C 183.226562 -59.476562 183.242188 -59.207031 183.515625 -59.246094 C 188.257812 -59.828125 192.734375 -60.367188 197.085938 -62.542969 C 197.355469 -62.582031 197.625 -62.625 197.898438 -62.667969 C 200.671875 -64.050781 203.445312 -65.4375 205.882812 -67.597656 C 206.007812 -67.753906 206.550781 -67.839844 206.675781 -67.996094 C 208.34375 -69.492188 210.015625 -70.984375 211.683594 -72.484375 C 212.832031 -73.621094 213.839844 -74.878906 214.980469 -76.019531 C 220.683594 -82.261719 224.371094 -89.855469 231.089844 -95.285156 C 231.878906 -95.683594 232.671875 -96.074219 233.464844 -96.472656 C 234.253906 -96.871094 235.210938 -96.875 236.023438 -97 C 236.984375 -97.007812 237.957031 -96.742188 238.9375 -96.472656 C 239.910156 -96.207031 240.78125 -95.511719 241.636719 -95.089844 C 243.355469 -93.972656 244.542969 -92.769531 245.886719 -91.183594 C 249.050781 -87.113281 251.804688 -83.117188 253.410156 -77.972656 C 253.574219 -77.585938 253.867188 -77.351562 254.03125 -76.964844 C 260.578125 -60.160156 261.574219 -42.652344 259.261719 -23.683594 C 259.160156 -23.253906 259.03125 -23.09375 258.921875 -22.667969 C 256.355469 -3.378906 249.402344 13.949219 238.804688 29.90625 C 232.402344 39.703125 225.484375 48.058594 216.347656 55.925781 C 215.054688 56.949219 213.882812 57.820312 212.738281 58.957031 C 202.015625 67.617188 191.386719 73.78125 178.324219 78.515625 C 176.847656 78.878906 175.515625 79.355469 174.054688 79.988281 C 153.589844 86.261719 133.914062 86.476562 114.234375 82.839844 C 113.394531 82.695312 112.4375 82.699219 111.601562 82.550781 Z M 111.601562 82.550781 " clip-rule="nonzero"/></clipPath><clipPath id="81b29c3f76"><rect x="0" width="241" y="0" height="116"/></clipPath></defs><g clip-path="url(#7f007df1c4)"><path fill="#ffffff" d="M 0.0859375 0 L 840.855469 0 L 840.855469 594.453125 L 0.0859375 594.453125 Z M 0.0859375 0 " fill-opacity="1" fill-rule="nonzero"/><path fill="#000000" d="M 0.0859375 0 L 840.855469 0 L 840.855469 594.453125 L 0.0859375 594.453125 Z M 0.0859375 0 " fill-opacity="1" fill-rule="nonzero"/></g><g clip-path="url(#9679f32ba4)"><g transform="matrix(1, 0, 0, 1, 22, 22)"><g clip-path="url(#3677cbe353)"><g clip-path="url(#93dcdc5555)"><path fill="#f7f8fd" d="M 0.769531 0.761719 L 795.960938 0.761719 L 795.960938 549.464844 L 0.769531 549.464844 Z M 0.769531 0.761719 " fill-opacity="1" fill-rule="nonzero"/></g></g></g></g><g clip-path="url(#65286bcd99)"><g clip-path="url(#daf406bf08)"><g clip-path="url(#acfdd5a50a)"><g transform="matrix(1, 0, 0, 1, 0.000000000000000014, 0)"><g clip-path="url(#81b29c3f76)"><g clip-path="url(#45d6dfc1a4)"><g clip-path="url(#7bdd85d0b4)"><g clip-path="url(#5a8f5fcd4c)"><path fill="#000000" d="M 146.671875 -171.054688 L 301.429688 -47.414062 L 112.195312 189.441406 L -42.5625 65.800781 Z M 146.671875 -171.054688 " fill-opacity="1" fill-rule="nonzero"/></g></g></g></g></g></g></g></g></svg>