<svg xmlns="http://www.w3.org/2000/svg" xmlns:xlink="http://www.w3.org/1999/xlink" width="1123" zoomAndPan="magnify" viewBox="0 0 240.75 141.75" height="794" preserveAspectRatio="xMidYMid meet" version="1.0"><metadata/><defs><clipPath id="bd067837a1"><path d="M 0.0859375 0 L 240.414062 0 L 240.414062 141.5 L 0.0859375 141.5 Z M 0.0859375 0 " clip-rule="nonzero"/></clipPath><clipPath id="764b147fb0"><path d="M 22.769531 22.761719 L 240.414062 22.761719 L 240.414062 141.5 L 22.769531 141.5 Z M 22.769531 22.761719 " clip-rule="nonzero"/></clipPath><clipPath id="b536940b99"><path d="M 0.769531 0.761719 L 218.414062 0.761719 L 218.414062 119.5 L 0.769531 119.5 Z M 0.769531 0.761719 " clip-rule="nonzero"/></clipPath><clipPath id="5369cf9d45"><rect x="0" width="219" y="0" height="120"/></clipPath><clipPath id="50f4a369a3"><path d="M 0.0859375 0 L 240.414062 0 L 240.414062 141.5 L 0.0859375 141.5 Z M 0.0859375 0 " clip-rule="nonzero"/></clipPath><clipPath id="a00b915f33"><path d="M 214.105469 -158.9375 L 266.34375 -7.28125 L -250.460938 170.730469 L -302.699219 19.074219 Z M 214.105469 -158.9375 " clip-rule="nonzero"/></clipPath><clipPath id="6947800f54"><path d="M 111.289062 45.90625 C 77.210938 57.644531 70.71875 38.792969 36.746094 50.496094 C 2.671875 62.234375 9.164062 81.082031 -24.808594 92.785156 C -58.886719 104.523438 -65.378906 85.671875 -99.351562 97.375 C -133.429688 109.113281 -126.9375 127.960938 -161.015625 139.699219 C -195.09375 151.4375 -201.472656 132.921875 -235.445312 144.621094 C -236.265625 144.980469 -237.191406 145.371094 -238.035156 145.664062 C -248.375 149.222656 -258.644531 146.820312 -260.882812 140.316406 L -298.605469 30.804688 C -300.929688 24.402344 -294.421875 16.222656 -283.976562 12.625 C -283.027344 12.296875 -282.160156 12.074219 -281.296875 11.847656 C -247.21875 0.109375 -240.769531 18.828125 -206.796875 7.125 C -172.71875 -4.613281 -179.210938 -23.460938 -145.136719 -35.199219 C -111.058594 -46.9375 -104.566406 -28.089844 -70.59375 -39.789062 C -36.515625 -51.527344 -43.007812 -70.378906 -9.035156 -82.078125 C 25.042969 -93.816406 31.535156 -74.96875 65.507812 -86.667969 C 99.691406 -98.441406 93.199219 -117.292969 127.277344 -129.03125 C 161.355469 -140.769531 167.734375 -122.25 201.703125 -133.953125 C 212.042969 -137.515625 222.3125 -135.113281 224.554688 -128.605469 L 262.273438 -19.09375 C 264.515625 -12.589844 257.90625 -4.371094 247.566406 -0.8125 C 213.488281 10.925781 206.949219 -8.054688 172.976562 3.644531 C 138.875 15.316406 145.367188 34.167969 111.289062 45.90625 Z M 111.289062 45.90625 " clip-rule="nonzero"/></clipPath><clipPath id="6e786caaff"><path d="M 0.0859375 0 L 240.414062 0 L 240.414062 141.5 L 0.0859375 141.5 Z M 0.0859375 0 " clip-rule="nonzero"/></clipPath><clipPath id="03e629dc92"><path d="M 214.105469 -158.9375 L 266.34375 -7.28125 L -250.460938 170.730469 L -302.699219 19.074219 Z M 214.105469 -158.9375 " clip-rule="nonzero"/></clipPath><clipPath id="95392449b8"><path d="M 111.289062 45.90625 C 77.210938 57.644531 70.71875 38.792969 36.746094 50.496094 C 2.671875 62.234375 9.164062 81.082031 -24.808594 92.785156 C -58.886719 104.523438 -65.378906 85.671875 -99.351562 97.375 C -133.429688 109.113281 -126.9375 127.960938 -161.015625 139.699219 C -195.09375 151.4375 -201.472656 132.921875 -235.445312 144.621094 C -236.265625 144.980469 -237.191406 145.371094 -238.035156 145.664062 C -248.375 149.222656 -258.644531 146.820312 -260.882812 140.316406 L -298.605469 30.804688 C -300.929688 24.402344 -294.421875 16.222656 -283.976562 12.625 C -283.027344 12.296875 -282.160156 12.074219 -281.296875 11.847656 C -247.21875 0.109375 -240.769531 18.828125 -206.796875 7.125 C -172.71875 -4.613281 -179.210938 -23.460938 -145.136719 -35.199219 C -111.058594 -46.9375 -104.566406 -28.089844 -70.59375 -39.789062 C -36.515625 -51.527344 -43.007812 -70.378906 -9.035156 -82.078125 C 25.042969 -93.816406 31.535156 -74.96875 65.507812 -86.667969 C 99.691406 -98.441406 93.199219 -117.292969 127.277344 -129.03125 C 161.355469 -140.769531 167.734375 -122.25 201.703125 -133.953125 C 212.042969 -137.515625 222.3125 -135.113281 224.554688 -128.605469 L 262.273438 -19.09375 C 264.515625 -12.589844 257.90625 -4.371094 247.566406 -0.8125 C 213.488281 10.925781 206.949219 -8.054688 172.976562 3.644531 C 138.875 15.316406 145.367188 34.167969 111.289062 45.90625 Z M 111.289062 45.90625 " clip-rule="nonzero"/></clipPath><clipPath id="a6e8fd23d0"><rect x="0" width="241" y="0" height="142"/></clipPath></defs><g clip-path="url(#bd067837a1)"><path fill="#ffffff" d="M 0.0859375 0 L 840.855469 0 L 840.855469 594.453125 L 0.0859375 594.453125 Z M 0.0859375 0 " fill-opacity="1" fill-rule="nonzero"/><path fill="#000000" d="M 0.0859375 0 L 840.855469 0 L 840.855469 594.453125 L 0.0859375 594.453125 Z M 0.0859375 0 " fill-opacity="1" fill-rule="nonzero"/></g><g clip-path="url(#764b147fb0)"><g transform="matrix(1, 0, 0, 1, 22, 22)"><g clip-path="url(#5369cf9d45)"><g clip-path="url(#b536940b99)"><path fill="#f7f8fd" d="M 0.769531 0.761719 L 795.960938 0.761719 L 795.960938 549.464844 L 0.769531 549.464844 Z M 0.769531 0.761719 " fill-opacity="1" fill-rule="nonzero"/></g></g></g></g><g clip-path="url(#50f4a369a3)"><g clip-path="url(#a00b915f33)"><g clip-path="url(#6947800f54)"><g transform="matrix(1, 0, 0, 1, 0.000000000000000014, 0)"><g clip-path="url(#a6e8fd23d0)"><g clip-path="url(#6e786caaff)"><g clip-path="url(#03e629dc92)"><g clip-path="url(#95392449b8)"><path fill="#000000" d="M 214.105469 -158.9375 L 266.34375 -7.28125 L -250.460938 170.730469 L -302.699219 19.074219 Z M 214.105469 -158.9375 " fill-opacity="1" fill-rule="nonzero"/></g></g></g></g></g></g></g></g></svg>